<?xml version="1.0" encoding="UTF-8"?>
<svg id="Layer_1" xmlns="http://www.w3.org/2000/svg" version="1.1" viewBox="0 0 1854.7 1697.1">
  <!-- Generator: Adobe Illustrator 30.2.1, SVG Export Plug-In . SVG Version: 2.1.1 Build 1)  -->
  <polyline points="141.7 1522.3 91.5 1522.3 91.5 647.5 122.4 647.5" fill="none" stroke="#2c4bff" stroke-miterlimit="10" stroke-width="10"/>
  <line x1="712.9" y1="1522.3" x2="141.7" y2="1522.3" fill="none" stroke="#ffb510" stroke-miterlimit="10" stroke-width="10"/>
  <line x1="976.7" y1="1522.3" x2="712.9" y2="1522.3" fill="none" stroke="#2c4bff" stroke-miterlimit="10" stroke-width="10"/>
  <line x1="1244.4" y1="1522.3" x2="976.7" y2="1522.3" fill="none" stroke="#ffb510" stroke-miterlimit="10" stroke-width="10"/>
  <line x1="1266" y1="1522.3" x2="1244.4" y2="1522.3" fill="none" stroke="#2c4bff" stroke-miterlimit="10" stroke-width="10"/>
  <line x1="1516" y1="1522.3" x2="1266" y2="1522.3" fill="none" stroke="#ffb510" stroke-miterlimit="10" stroke-width="10"/>
  <polyline points="325.4 482.1 325.4 109.4 1749.9 109.4 1749.9 1522.3 1516 1522.3" fill="none" stroke="#2c4bff" stroke-miterlimit="10" stroke-width="10"/>
  <path d="M325.4,482.1" fill="none" stroke="#2c4bff" stroke-miterlimit="10" stroke-width="10"/>
  <polyline points="261.6 647.5 325.4 647.5 325.4 626.4" fill="none" stroke="#2c4bff" stroke-miterlimit="10" stroke-width="10"/>
  <polyline points="758.3 1522.3 758.3 838.1 1088.8 838.1" fill="none" stroke="#2c4bff" stroke-miterlimit="10" stroke-width="10"/>
  <line x1="1249.3" y1="838.1" x2="1249.3" y2="1522.3" fill="none" stroke="#2c4bff" stroke-miterlimit="10" stroke-width="10"/>
  <line x1="1396.2" y1="838.1" x2="1749.9" y2="838.1" fill="none" stroke="#2c4bff" stroke-miterlimit="10" stroke-width="10"/>
  <line x1="1412.6" y1="615.3" x2="1412.6" y2="838.1" fill="none" stroke="#2c4bff" stroke-miterlimit="10" stroke-width="10"/>
  <polyline points="1412.6 491.8 1412.6 472.3 1749.9 472.3" fill="none" stroke="#2c4bff" stroke-miterlimit="10" stroke-width="10"/>
  <line x1="1249.3" y1="196.8" x2="1249.3" y2="109.4" fill="none" stroke="#2c4bff" stroke-miterlimit="10" stroke-width="10"/>
  <polyline points="1249.3 311.4 1249.3 647.7 737.5 647.7" fill="none" stroke="#2c4bff" stroke-miterlimit="10" stroke-width="10"/>
  <line x1="758.3" y1="378" x2="758.3" y2="109.4" fill="none" stroke="#2c4bff" stroke-miterlimit="10" stroke-width="10"/>
  <line x1="758.3" y1="517.2" x2="758.3" y2="647.7" fill="none" stroke="#2c4bff" stroke-miterlimit="10" stroke-width="10"/>
  <path d="M602.7,647.7" fill="none" stroke="#2c4bff" stroke-miterlimit="10" stroke-width="10"/>
  <line x1="602.7" y1="647.7" x2="325.4" y2="647.7" fill="none" stroke="#2c4bff" stroke-miterlimit="10" stroke-width="10"/>
  <polyline points="1040.5 647.7 1040.5 339.4 1095.6 339.4" fill="none" stroke="#2c4bff" stroke-miterlimit="10" stroke-width="10"/>
  <line x1="1215.9" y1="339.4" x2="1249.3" y2="339.4" fill="none" stroke="#2c4bff" stroke-miterlimit="10" stroke-width="10"/>
  <text transform="translate(351.5 1211.2)" font-family="Courier, Courier" font-size="61.9"><tspan x="0" y="0">SALA</tspan></text>
  <text transform="translate(868 1211.2)" font-family="Courier, Courier" font-size="61.9"><tspan x="0" y="0">QUARTO 1</tspan></text>
  <text transform="translate(1360.8 1211.2)" font-family="Courier, Courier" font-size="61.9"><tspan x="0" y="0">QUARTO 2</tspan></text>
  <text transform="translate(1360.8 311.4)" font-family="Courier, Courier" font-size="61.9"><tspan x="0" y="0">QUARTO 3</tspan></text>
  <text transform="translate(399 378)" font-family="Courier, Courier" font-size="61.9"><tspan x="0" y="0">COZINHA</tspan></text>
  <g>
    <path d="M844.9,205.1h-3.2c-.9,0-1.5-.1-1.9-.4-.4-.2-.5-.6-.5-1.2s.2-1,.5-1.2c.3-.2,1.2-.3,2.5-.3h6.2c.8,0,1.3.1,1.6.3.3.2.5.6.8,1.2l8.5,21.2h.4c.8,0,1.3.1,1.6.3.3.2.4.6.4,1.2s-.1,1-.4,1.2c-.3.2-.8.3-1.5.3h-5.9c-1.1,0-1.8-.1-2.1-.3-.3-.2-.5-.6-.5-1.2s.2-.9.5-1.2c.3-.2,1-.3,1.9-.3h2l-2.1-5.2h-11l-1.9,5.2h2.1c1,0,1.6.1,2,.3.3.2.5.6.5,1.2s-.2,1-.5,1.2c-.3.2-1,.3-2.1.3h-5.7c-.9,0-1.5-.1-1.8-.3-.3-.2-.5-.6-.5-1.2s.2-1,.5-1.2c.3-.2.9-.3,1.8-.3h.4l7.4-19.6ZM842.8,198.3l10.4-6.1s0,0,.2,0c0,0,.1,0,.2,0,.2,0,.4,0,.5.2.2.1.3.3.4.5l.7,1.3s0,.1,0,.2c0,0,0,.2,0,.3s0,.3-.2.5c-.1.2-.2.3-.4.3l-11.3,4-.6-1.2ZM843.8,216.6h8.9l-4.7-11.5-4.2,11.5Z"/>
    <path d="M870.1,224.6h1.5c.8,0,1.4.1,1.8.3s.5.6.5,1.1-.2,1-.5,1.2-.9.3-1.7.3h-7.3c-.5,0-.9-.1-1.1-.4s-.4-.7-.4-1.2.1-.9.4-1.1c.3-.2.8-.3,1.4-.3h2v-19.7h-1.3c-1.1,0-1.8-.1-2.1-.3-.3-.2-.5-.6-.5-1.2s.1-.9.4-1.1c.3-.2.6-.4,1.1-.4h9.2c2.2,0,3.9.1,5,.3,1.1.2,2,.6,2.8,1.1,1,.7,1.7,1.5,2.3,2.6.6,1.1.8,2.2.8,3.5s-.5,3.1-1.5,4.3c-1,1.2-2.4,2-4.3,2.5.4.2.7.5,1,.8s.6.6.9,1l4.4,6.7h.7c.8,0,1.4.1,1.7.3.3.2.5.6.5,1.2s-.1.9-.4,1.2c-.3.3-.6.4-1.1.4h-2.5c-.7,0-1.4-.5-2.1-1.6,0,0-.2-.2-.2-.2l-4.2-6.3c-.9-1.3-1.6-2.1-2.1-2.5s-1.3-.6-2.2-.6h-2.9v8.1ZM870.1,204.9v8.8h4.5c2,0,3.5-.4,4.6-1.1,1-.7,1.5-1.8,1.5-3.3s-.5-2.6-1.5-3.3c-1-.7-2.5-1.1-4.5-1.1h-4.6Z"/>
    <path d="M892.4,227.7h-1c-.5,0-.9-.1-1.2-.4s-.4-.7-.4-1.2.2-1,.5-1.2c.3-.2,1-.3,2.1-.3h1.4v-19.6h-1.4c-1.1,0-1.8-.1-2.1-.3-.3-.2-.5-.6-.5-1.2s.1-.9.4-1.2c.3-.3.7-.4,1.2-.4h18.9c.5,0,.9.1,1.1.4.3.3.4.7.4,1.3v5.1c0,.8-.1,1.3-.3,1.6-.2.3-.6.4-1.2.4s-1-.2-1.2-.5c-.2-.3-.3-1-.3-2.1v-3.1h-11.5v7.3h5.7v-1.1c0-.8.1-1.3.3-1.6.2-.3.6-.5,1.1-.5s.9.2,1.1.5c.2.3.3,1,.3,2.1v4c0,1.1-.1,1.8-.3,2.1s-.6.5-1.1.5-.9-.2-1.1-.5-.3-1-.3-2v-.8h-5.7v9.6h11.5v-3.5c0-1.1.1-1.8.3-2.1.2-.3.6-.5,1.2-.5s.9.1,1.2.4c.2.3.3.9.3,1.7v5.5c0,.5-.1.9-.4,1.2-.3.3-.6.4-1.1.4h-17.9Z"/>
    <path d="M925,205.1h-3.2c-.9,0-1.5-.1-1.9-.4s-.5-.6-.5-1.2.2-1,.5-1.2c.3-.2,1.2-.3,2.5-.3h6.2c.8,0,1.3.1,1.6.3.3.2.5.6.8,1.2l8.5,21.2h.4c.8,0,1.3.1,1.6.3.3.2.4.6.4,1.2s-.1,1-.4,1.2c-.3.2-.8.3-1.5.3h-5.9c-1.1,0-1.8-.1-2.1-.3-.3-.2-.5-.6-.5-1.2s.2-.9.5-1.2c.3-.2,1-.3,1.9-.3h2l-2.1-5.2h-11l-1.9,5.2h2.1c1,0,1.6.1,2,.3.3.2.5.6.5,1.2s-.2,1-.5,1.2c-.3.2-1,.3-2.1.3h-5.7c-.9,0-1.5-.1-1.8-.3-.3-.2-.5-.6-.5-1.2s.2-1,.5-1.2c.3-.2.9-.3,1.8-.3h.4l7.4-19.6ZM923.9,216.6h8.9l-4.7-11.5-4.2,11.5Z"/>
    <path d="M976.5,227.7h-4.4c-.5,0-.9-.1-1.2-.4s-.4-.7-.4-1.2.2-1,.5-1.2c.3-.2.9-.3,1.8-.3h.4v-19.6h-.3c-.9,0-1.5-.1-1.8-.3-.3-.2-.5-.6-.5-1.2s.1-.9.4-1.2c.3-.3.7-.4,1.2-.4h9.2c3.6,0,6.5,1.2,8.6,3.5,2.1,2.3,3.2,5.5,3.2,9.4s-.3,3.7-.9,5.4c-.6,1.6-1.5,3.1-2.7,4.3-1.1,1.1-2.4,1.9-4,2.5-1.6.5-3.6.8-6,.8s-.8,0-1.5,0c-.7,0-1.2,0-1.6,0ZM976.5,224.6c.5,0,.9,0,1.4,0,.5,0,.9,0,1.3,0,3.6,0,6.2-.8,7.8-2.4,1.7-1.6,2.5-4.1,2.5-7.5s-.8-5.9-2.5-7.5c-1.7-1.6-4.3-2.4-8-2.4s-1.2,0-1.6,0c-.4,0-.7,0-1,0v19.6Z"/>
    <path d="M999,227.7h-1c-.5,0-.9-.1-1.2-.4-.3-.3-.4-.7-.4-1.2s.2-1,.5-1.2c.3-.2,1-.3,2.1-.3h1.4v-19.6h-1.4c-1.1,0-1.8-.1-2.1-.3-.3-.2-.5-.6-.5-1.2s.1-.9.4-1.2c.3-.3.7-.4,1.2-.4h18.9c.5,0,.9.1,1.1.4.3.3.4.7.4,1.3v5.1c0,.8-.1,1.3-.3,1.6-.2.3-.6.4-1.2.4s-1-.2-1.2-.5c-.2-.3-.3-1-.3-2.1v-3.1h-11.5v7.3h5.7v-1.1c0-.8.1-1.3.3-1.6.2-.3.6-.5,1.1-.5s.9.2,1.1.5c.2.3.3,1,.3,2.1v4c0,1.1-.1,1.8-.3,2.1-.2.3-.6.5-1.1.5s-.9-.2-1.1-.5-.3-1-.3-2v-.8h-5.7v9.6h11.5v-3.5c0-1.1.1-1.8.3-2.1.2-.3.6-.5,1.2-.5s.9.1,1.2.4c.2.3.3.9.3,1.7v5.5c0,.5-.1.9-.4,1.2-.3.3-.6.4-1.1.4h-17.9Z"/>
    <path d="M842,280.3c0,.7-.2,1.1-.5,1.4-.3.3-.7.4-1.2.4s-1.1-.2-1.4-.5c-.3-.4-.5-.9-.5-1.7l-.3-5v-.4c0-.7.1-1.2.4-1.5.3-.3.7-.4,1.3-.4s1.5.6,1.9,1.9c.2.6.3,1.1.5,1.4.5,1,1.3,1.8,2.4,2.3s2.4.8,3.9.8,3.4-.4,4.5-1.3,1.7-2,1.7-3.4-.4-2.1-1.1-2.8c-.7-.7-1.8-1.1-3.1-1.3l-3.2-.4c-3-.4-5.2-1.2-6.6-2.4-1.4-1.2-2.1-2.8-2.1-4.9s.9-4.1,2.7-5.6c1.8-1.5,4.1-2.3,6.8-2.3s1.6.1,2.5.3c.9.2,1.9.5,3,1,0-.4.1-.7.3-.9.2-.2.5-.2,1-.2s1.1,0,1.3.3c.2.2.4.6.5,1.3l.3,4.5v.2c0,.5-.1.9-.4,1.2-.3.3-.7.4-1.2.4-.8,0-1.4-.5-1.8-1.6-.2-.6-.4-1.1-.6-1.4-.5-.7-1.2-1.3-2.1-1.7s-1.9-.6-3.1-.6c-1.8,0-3.2.4-4.3,1.3-1.1.9-1.6,2-1.6,3.4s.4,2,1.2,2.6c.8.6,2.1,1.1,3.7,1.3l3.5.4c2.5.3,4.4,1.1,5.7,2.3,1.3,1.2,1.9,2.8,1.9,4.9s-.9,4.4-2.7,5.8c-1.8,1.5-4.2,2.2-7.2,2.2s-2.1-.1-3.1-.4c-1-.2-2.1-.6-3.3-1.2Z"/>
    <path d="M865.7,281h-1c-.5,0-.9-.1-1.2-.4s-.4-.7-.4-1.2.2-1,.5-1.2c.3-.2,1-.3,2.1-.3h1.4v-19.6h-1.4c-1.1,0-1.8-.1-2.1-.3-.3-.2-.5-.6-.5-1.2s.1-.9.4-1.2c.3-.3.7-.4,1.2-.4h18.9c.5,0,.9.1,1.1.4.3.3.4.7.4,1.3v5.1c0,.8-.1,1.3-.3,1.6-.2.3-.6.4-1.2.4s-1-.2-1.2-.5c-.2-.3-.3-1-.3-2.1v-3.1h-11.5v7.3h5.7v-1.1c0-.8.1-1.3.3-1.6.2-.3.6-.5,1.1-.5s.9.2,1.1.5c.2.3.3,1,.3,2.1v4c0,1.1-.1,1.8-.3,2.1s-.6.5-1.1.5-.9-.2-1.1-.5-.3-1-.3-2v-.8h-5.7v9.6h11.5v-3.5c0-1.1.1-1.8.3-2.1.2-.3.6-.5,1.2-.5s.9.1,1.2.4c.2.3.3.9.3,1.7v5.5c0,.5-.1.9-.4,1.2-.3.3-.6.4-1.1.4h-17.9Z"/>
    <path d="M896.8,278h1.5c.8,0,1.4.1,1.8.3s.5.6.5,1.1-.2,1-.5,1.2-.9.3-1.7.3h-7.3c-.5,0-.9-.1-1.1-.4s-.4-.7-.4-1.2.1-.9.4-1.1c.3-.2.8-.3,1.4-.3h2v-19.7h-1.3c-1.1,0-1.8-.1-2.1-.3-.3-.2-.5-.6-.5-1.2s.1-.9.4-1.1c.3-.2.6-.4,1.1-.4h9.2c2.2,0,3.9.1,5,.3,1.1.2,2,.6,2.8,1.1,1,.7,1.7,1.5,2.3,2.6.6,1.1.8,2.2.8,3.5s-.5,3.1-1.5,4.3c-1,1.2-2.4,2-4.3,2.5.4.2.7.5,1,.8s.6.6.9,1l4.4,6.7h.7c.8,0,1.4.1,1.7.3.3.2.5.6.5,1.2s-.1.9-.4,1.2c-.3.3-.6.4-1.1.4h-2.5c-.7,0-1.4-.5-2.1-1.6,0,0-.2-.2-.2-.2l-4.2-6.3c-.9-1.3-1.6-2.1-2.1-2.5s-1.3-.6-2.2-.6h-2.9v8.1ZM896.8,258.2v8.8h4.5c2,0,3.5-.4,4.6-1.1,1-.7,1.5-1.8,1.5-3.3s-.5-2.6-1.5-3.3c-1-.7-2.5-1.1-4.5-1.1h-4.6Z"/>
    <path d="M917.6,258.4h-.3c-.7,0-1.2-.1-1.5-.4s-.5-.6-.5-1.2.1-.9.4-1.2c.3-.3.6-.4,1.1-.4h6.6c.9,0,1.4.1,1.7.3.3.2.4.6.4,1.2s-.2.9-.5,1.2c-.3.3-.8.4-1.5.4h-2.4l7.4,18.9,7.2-18.9h-2.9c-.7,0-1.2-.1-1.5-.4-.3-.3-.5-.6-.5-1.2s.2-1,.5-1.2c.3-.2.9-.3,1.7-.3h6.8c.5,0,.9.1,1.1.4.3.3.4.7.4,1.2s-.2,1-.5,1.2c-.3.2-.8.4-1.6.4h-.3l-7.8,20.4c-.4,1.1-.8,1.8-1.1,2s-.6.4-1,.4h-1.2c-1,0-1.7-.8-2.3-2.3h0c0-.1-8-20.6-8-20.6Z"/>
    <path d="M961.6,278c1.1,0,1.8.1,2.1.3.3.2.5.6.5,1.2s-.2,1-.5,1.2c-.3.2-1,.3-2.1.3h-14.2c-.5,0-.9-.1-1.2-.4-.3-.3-.4-.7-.4-1.2s.2-1,.5-1.2c.3-.2,1-.3,2.1-.3h4.9v-19.6h-4.9c-1.1,0-1.8-.1-2.1-.3-.3-.2-.5-.6-.5-1.2s.1-.9.4-1.2c.3-.3.7-.4,1.2-.4h15.2c.5,0,.9.1,1.2.4s.4.7.4,1.2-.2,1-.5,1.2c-.3.2-1,.3-2.1.3h-4.9v19.6h4.9Z"/>
    <path d="M982,281.7v1.6c.3,0,.6,0,.9,0,.3,0,.5,0,.7,0,1.1,0,2.1.3,2.8,1s1.1,1.6,1.1,2.7-.4,2.2-1.3,2.9c-.9.7-2.1,1-3.6,1s-2.9-.3-4.3-.8c-1.3-.5-2-1.1-2-1.6s0-.4.3-.6c.2-.1.4-.2.8-.2s.8.2,1.8.6c1.1.4,2,.6,2.8.6s1.2-.2,1.6-.5c.3-.3.5-.8.5-1.4s-.2-1-.6-1.3c-.4-.3-.9-.5-1.6-.5s-.4,0-.8,0c-.2,0-.4,0-.5,0v-3.7c-3.2-.5-5.7-1.9-7.6-4.3-1.9-2.4-2.9-5.3-2.9-8.8s1.2-7.2,3.5-9.8c2.4-2.6,5.3-3.9,8.9-3.9s1.9.1,2.9.3,2,.6,3.1,1c.1-.4.3-.7.6-.8.3-.2.6-.2,1.1-.2s.9.1,1.1.4c.2.3.3.8.3,1.6,0,1.4,0,2.7,0,4s0,1.8,0,1.6c0,.7-.1,1.1-.3,1.4-.2.2-.6.4-1.2.4-1,0-1.6-.7-1.9-2-.1-.4-.2-.7-.2-.9-.3-1.1-.9-2-2-2.7-1-.7-2.3-1-3.7-1-2.6,0-4.6.9-6.2,2.8-1.5,1.9-2.3,4.4-2.3,7.5s.8,5.7,2.4,7.5c1.6,1.9,3.6,2.8,6.2,2.8s1.7-.1,2.6-.4,1.7-.6,2.6-1.1c.4-.2.9-.5,1.6-1,.7-.5,1.2-.7,1.5-.7.4,0,.8.1,1.1.4.3.3.5.7.5,1.1,0,1-1.1,2.1-3.2,3.3-2.1,1.1-4.5,1.7-7.2,1.8Z"/>
    <path d="M1020.1,268.1c0,4-1.1,7.2-3.3,9.8s-5,3.8-8.4,3.8-6.2-1.3-8.4-3.8-3.3-5.8-3.3-9.7,1.1-7.3,3.3-9.8c2.2-2.5,5-3.8,8.4-3.8s6.2,1.3,8.4,3.8,3.3,5.8,3.3,9.7ZM1008.3,278.6c2.4,0,4.3-.9,5.7-2.8,1.4-1.9,2.1-4.4,2.1-7.7s-.7-5.8-2.1-7.7c-1.4-1.9-3.3-2.8-5.7-2.8s-4.4.9-5.7,2.8c-1.4,1.8-2.1,4.4-2.1,7.7s.7,5.8,2.1,7.7c1.4,1.9,3.3,2.8,5.7,2.8Z"/>
  </g>
  <text transform="translate(1478 647.7)" font-family="Courier, Courier" font-size="45.8"><tspan x="0" y="0">BANHEIRO</tspan><tspan x="27.5" y="55">SOCIAL</tspan></text>
  <g>
    <path d="M1093.6,487.4h-6.7c-.4,0-.6,0-.8-.3s-.3-.5-.3-.8.1-.7.3-.8.7-.2,1.6-.2h.5v-13.6h-.5c-.8,0-1.3,0-1.5-.2s-.3-.4-.3-.9,0-.6.3-.8c.2-.2.4-.3.8-.3h7c2.1,0,3.7.4,4.9,1.2,1.1.8,1.7,2,1.7,3.6s-.2,1.5-.5,2.1c-.3.6-.8,1.1-1.5,1.5,1.1.4,1.9.9,2.4,1.6.5.7.8,1.6.8,2.7s-.2,1.7-.7,2.5c-.5.8-1.1,1.4-1.9,1.9-.5.3-1,.5-1.6.6s-1.5.2-2.6.2h-1.3ZM1090.6,477.3h3.1c1.4,0,2.5-.2,3.2-.7.7-.5,1-1.1,1-2.1s-.3-1.6-.9-2.1c-.6-.5-1.5-.7-2.7-.7h-3.7v5.5ZM1090.6,485.3h3.3c1.9,0,3.2-.2,4-.7.8-.5,1.2-1.3,1.2-2.4s-.4-1.9-1.1-2.4c-.7-.5-2-.7-3.9-.7h-3.5v6.2Z"/>
    <path d="M1110,471.8h-2.2c-.6,0-1,0-1.3-.2s-.4-.4-.4-.8.1-.7.3-.9c.2-.2.8-.2,1.8-.2h4.3c.6,0,.9,0,1.1.2.2.1.4.4.5.8l5.9,14.7h.3c.5,0,.9,0,1.1.2.2.2.3.4.3.8s0,.7-.3.9c-.2.2-.5.2-1.1.2h-4.1c-.8,0-1.3,0-1.5-.2s-.3-.4-.3-.9.1-.6.4-.8c.2-.2.7-.2,1.3-.2h1.4l-1.5-3.6h-7.6l-1.3,3.6h1.5c.7,0,1.1,0,1.4.2.2.2.4.4.4.8s-.1.7-.3.9-.7.2-1.4.2h-4c-.6,0-1.1,0-1.3-.2s-.3-.4-.3-.9.1-.7.3-.8c.2-.2.6-.2,1.2-.2h.3l5.1-13.6ZM1109.2,479.7h6.2l-3.2-8-2.9,8Z"/>
    <path d="M1126.7,485.3h1.9c.5,0,.9,0,1.2.2.2.2.3.4.3.8s-.1.7-.3.9-.7.2-1.4.2h-4.5c-.4,0-.6,0-.8-.3s-.3-.5-.3-.8.1-.7.3-.8c.2-.1.6-.2,1.2-.2h.3v-13.6h-.4c-.8,0-1.4,0-1.7-.2-.3-.2-.4-.4-.4-.8s.1-.6.4-.8c.3-.2.7-.2,1.2-.2.4,0,.7,0,.9,0h1.4c.5,0,.8,0,1,.2s.4.4.7.8l7.6,13.1v-11.9h-1.7c-.5,0-.9,0-1.2-.3-.2-.2-.4-.4-.4-.8s.1-.7.3-.9c.2-.2.7-.2,1.3-.2h4.3c.4,0,.6,0,.8.3s.3.5.3.8-.1.7-.3.8c-.2.2-.6.2-1.2.2h-.2v15.2c0,.3,0,.5-.2.6s-.4.2-.9.2-.8,0-.9,0-.3-.3-.6-.8l-8-13.8v12.3Z"/>
    <path d="M1145.7,485.3h1c.6,0,1,0,1.2.2.2.2.4.4.4.8s-.1.7-.3.9c-.2.2-.7.2-1.4.2h-4c-.4,0-.7,0-.8-.3s-.3-.5-.3-.8.1-.7.3-.8c.2-.2.6-.2,1.2-.2h.3v-13.6h-.2c-.6,0-1,0-1.2-.2-.2-.2-.3-.4-.3-.8s0-.6.3-.8.5-.3.9-.3h3.8c.8,0,1.3,0,1.5.2.2.2.3.4.3.9s-.1.7-.4.8c-.3.2-.8.2-1.5.2h-.7v5.2h7.2v-5.2h-1c-.6,0-1,0-1.2-.3-.2-.2-.4-.4-.4-.8s.1-.7.3-.9c.2-.2.8-.2,1.7-.2h3.7c.4,0,.6,0,.8.3.2.2.3.5.3.8s-.1.7-.3.8-.6.2-1.1.2h-.4v13.6h.2c.6,0,1,0,1.2.2s.3.4.3.8-.1.7-.3.9-.7.2-1.5.2h-3.1c-.8,0-1.3,0-1.6-.2s-.3-.4-.3-.9.1-.7.4-.8c.3-.2.8-.2,1.5-.2h.7v-6.3h-7.2v6.3Z"/>
    <path d="M1161.4,487.4h-.7c-.4,0-.6,0-.8-.3s-.3-.5-.3-.8.1-.7.3-.8.7-.2,1.5-.2h1v-13.6h-1c-.8,0-1.2,0-1.5-.2-.2-.2-.3-.4-.3-.9s0-.6.3-.8.5-.3.9-.3h13.1c.3,0,.6.1.8.3.2.2.3.5.3.9v3.6c0,.5,0,.9-.2,1.1-.2.2-.4.3-.8.3s-.7-.1-.9-.3c-.2-.2-.2-.7-.2-1.5v-2.2h-8v5.1h3.9v-.8c0-.5,0-.9.2-1.1.1-.2.4-.3.8-.3s.6.1.7.3c.1.2.2.7.2,1.5v2.8c0,.8,0,1.2-.2,1.4s-.4.3-.8.3-.6-.1-.7-.4c-.1-.2-.2-.7-.2-1.4v-.5h-3.9v6.7h8v-2.4c0-.8,0-1.3.2-1.5.2-.2.4-.3.9-.3s.6.1.8.3c.2.2.2.6.2,1.2v3.8c0,.4,0,.6-.3.8-.2.2-.4.3-.8.3h-12.4Z"/>
    <path d="M1190.9,485.3c.8,0,1.3,0,1.5.2s.3.4.3.8-.1.7-.3.9-.7.2-1.5.2h-9.8c-.4,0-.6,0-.8-.3-.2-.2-.3-.5-.3-.8s.1-.7.3-.8.7-.2,1.5-.2h3.4v-13.6h-3.4c-.8,0-1.2,0-1.5-.2-.2-.2-.3-.4-.3-.9s0-.6.3-.8c.2-.2.5-.3.9-.3h10.5c.4,0,.6,0,.8.3s.3.5.3.8-.1.7-.3.9c-.2.2-.7.2-1.5.2h-3.4v13.6h3.4Z"/>
    <path d="M1201.5,485.3h1c.6,0,1,0,1.2.2.2.2.4.4.4.8s-.1.7-.3.8-.6.2-1.2.2h-5.1c-.3,0-.6,0-.8-.3-.2-.2-.3-.5-.3-.8s0-.6.3-.8c.2-.2.5-.2,1-.2h1.4v-13.7h-.9c-.8,0-1.2,0-1.5-.2s-.3-.4-.3-.8,0-.6.3-.8c.2-.2.4-.3.8-.3h6.4c1.5,0,2.7,0,3.4.2.8.1,1.4.4,1.9.7.7.5,1.2,1,1.6,1.8.4.7.6,1.5.6,2.4s-.4,2.1-1.1,3c-.7.8-1.7,1.4-3,1.7.3.2.5.3.7.5.2.2.4.4.6.7l3,4.6h.5c.6,0,.9,0,1.2.2.2.2.3.4.3.8s0,.6-.3.8c-.2.2-.4.3-.8.3h-1.7c-.5,0-1-.4-1.4-1.1,0,0-.1-.1-.1-.2l-2.9-4.4c-.6-.9-1.1-1.5-1.5-1.7-.4-.3-.9-.4-1.5-.4h-2v5.6ZM1201.5,471.6v6.1h3.1c1.4,0,2.5-.3,3.2-.8.7-.5,1.1-1.3,1.1-2.3s-.3-1.8-1-2.3c-.7-.5-1.7-.8-3.1-.8h-3.2Z"/>
    <path d="M1231.5,478.5c0,2.8-.8,5-2.3,6.8-1.5,1.8-3.5,2.6-5.9,2.6s-4.3-.9-5.8-2.7c-1.5-1.8-2.3-4-2.3-6.8s.8-5,2.3-6.8,3.5-2.6,5.9-2.6,4.3.9,5.9,2.7c1.5,1.8,2.3,4,2.3,6.8ZM1223.3,485.8c1.7,0,3-.6,4-1.9,1-1.3,1.5-3.1,1.5-5.3s-.5-4.1-1.5-5.3c-1-1.3-2.3-1.9-4-1.9s-3,.6-4,1.9-1.4,3.1-1.4,5.4.5,4.1,1.5,5.3c1,1.3,2.3,1.9,4,1.9Z"/>
    <path d="M1098.7,523.9c0,.5-.2.8-.3.9s-.5.3-.9.3-.7-.1-.9-.4c-.2-.2-.3-.6-.4-1.2l-.2-3.5v-.3c0-.5,0-.8.3-1s.5-.3.9-.3,1,.4,1.3,1.3c.1.4.2.8.3,1,.4.7.9,1.2,1.7,1.6.8.4,1.7.6,2.7.6s2.3-.3,3.2-.9c.8-.6,1.2-1.4,1.2-2.3s-.2-1.4-.7-1.9c-.5-.5-1.2-.8-2.2-.9l-2.2-.3c-2.1-.3-3.6-.8-4.5-1.6-1-.8-1.4-1.9-1.4-3.4s.6-2.8,1.9-3.9c1.3-1,2.9-1.6,4.8-1.6s1.1,0,1.7.2,1.3.4,2.1.7c0-.3.1-.5.2-.6.1-.1.4-.2.7-.2s.7,0,.9.2c.2.1.3.4.3.9l.2,3.1v.2c0,.4-.1.6-.3.8-.2.2-.5.3-.8.3-.5,0-.9-.4-1.2-1.1-.1-.4-.3-.7-.4-.9-.3-.5-.8-.9-1.4-1.2s-1.3-.4-2.1-.4c-1.2,0-2.2.3-3,.9-.8.6-1.1,1.4-1.1,2.4s.3,1.4.9,1.8c.6.4,1.4.7,2.6.9l2.4.3c1.7.2,3.1.8,3.9,1.6.9.8,1.3,2,1.3,3.4s-.6,3-1.9,4.1c-1.3,1-2.9,1.5-5,1.5s-1.4,0-2.2-.3c-.7-.2-1.5-.4-2.3-.8Z"/>
    <path d="M1115.1,524.4h-.7c-.4,0-.6,0-.8-.3s-.3-.5-.3-.8.1-.7.3-.8.7-.2,1.5-.2h1v-13.6h-1c-.8,0-1.2,0-1.5-.2-.2-.2-.3-.4-.3-.9s0-.6.3-.8.5-.3.9-.3h13.1c.3,0,.6.1.8.3.2.2.3.5.3.9v3.6c0,.5,0,.9-.2,1.1-.2.2-.4.3-.8.3s-.7-.1-.9-.3c-.2-.2-.2-.7-.2-1.5v-2.2h-8v5.1h3.9v-.8c0-.5,0-.9.2-1.1.1-.2.4-.3.8-.3s.6.1.7.3c.1.2.2.7.2,1.5v2.8c0,.8,0,1.2-.2,1.4s-.4.3-.8.3-.6-.1-.7-.4c-.1-.2-.2-.7-.2-1.4v-.5h-3.9v6.7h8v-2.4c0-.8,0-1.3.2-1.5.2-.2.4-.3.9-.3s.6.1.8.3c.2.2.2.6.2,1.2v3.8c0,.4,0,.6-.3.8-.2.2-.4.3-.8.3h-12.4Z"/>
    <path d="M1136.7,522.3h1c.6,0,1,0,1.2.2.2.2.4.4.4.8s-.1.7-.3.8-.6.2-1.2.2h-5.1c-.3,0-.6,0-.8-.3-.2-.2-.3-.5-.3-.8s0-.6.3-.8c.2-.2.5-.2,1-.2h1.4v-13.7h-.9c-.8,0-1.2,0-1.5-.2s-.3-.4-.3-.8,0-.6.3-.8c.2-.2.4-.3.8-.3h6.4c1.5,0,2.7,0,3.4.2.8.1,1.4.4,1.9.7.7.5,1.2,1,1.6,1.8.4.7.6,1.5.6,2.4s-.4,2.1-1.1,3c-.7.8-1.7,1.4-3,1.7.3.2.5.3.7.5.2.2.4.4.6.7l3,4.6h.5c.6,0,.9,0,1.2.2.2.2.3.4.3.8s0,.6-.3.8c-.2.2-.4.3-.8.3h-1.7c-.5,0-1-.4-1.4-1.1,0,0-.1-.1-.1-.2l-2.9-4.4c-.6-.9-1.1-1.5-1.5-1.7-.4-.3-.9-.4-1.5-.4h-2v5.6ZM1136.7,508.6v6.1h3.1c1.4,0,2.5-.3,3.2-.8.7-.5,1.1-1.3,1.1-2.3s-.3-1.8-1-2.3c-.7-.5-1.7-.8-3.1-.8h-3.2Z"/>
    <path d="M1151.1,508.8h-.2c-.5,0-.9,0-1.1-.2s-.3-.4-.3-.8,0-.6.3-.8c.2-.2.4-.3.8-.3h4.6c.6,0,1,0,1.2.2.2.2.3.4.3.8s-.1.6-.3.8c-.2.2-.6.3-1.1.3h-1.7l5.1,13.1,5-13.1h-2c-.5,0-.8,0-1-.3-.2-.2-.3-.4-.3-.8s.1-.7.3-.8c.2-.2.6-.2,1.2-.2h4.7c.3,0,.6,0,.8.3.2.2.3.5.3.8s-.1.7-.3.8c-.2.2-.6.2-1.1.2h-.2l-5.4,14.2c-.3.8-.6,1.2-.7,1.4-.2.2-.4.3-.7.3h-.9c-.7,0-1.2-.5-1.6-1.6h0c0,0-5.5-14.3-5.5-14.3Z"/>
    <path d="M1181.7,522.3c.8,0,1.3,0,1.5.2s.3.4.3.8-.1.7-.3.9-.7.2-1.5.2h-9.8c-.4,0-.6,0-.8-.3-.2-.2-.3-.5-.3-.8s.1-.7.3-.8.7-.2,1.5-.2h3.4v-13.6h-3.4c-.8,0-1.2,0-1.5-.2-.2-.2-.3-.4-.3-.9s0-.6.3-.8c.2-.2.5-.3.9-.3h10.5c.4,0,.6,0,.8.3s.3.5.3.8-.1.7-.3.9c-.2.2-.7.2-1.5.2h-3.4v13.6h3.4Z"/>
    <path d="M1195.8,524.9v1.1c.2,0,.4,0,.6,0,.2,0,.4,0,.5,0,.8,0,1.4.2,1.9.7.5.5.7,1.1.7,1.9s-.3,1.5-.9,2c-.6.5-1.4.7-2.5.7s-2-.2-3-.5-1.4-.7-1.4-1.1,0-.3.2-.4c.1-.1.3-.2.5-.2s.5.1,1.3.4c.7.3,1.4.4,2,.4s.8-.1,1.1-.3c.2-.2.4-.6.4-1s-.1-.7-.4-.9c-.3-.2-.6-.3-1.1-.3s-.3,0-.6,0c-.2,0-.3,0-.4,0v-2.6c-2.2-.3-3.9-1.3-5.3-3-1.3-1.7-2-3.7-2-6.1s.8-5,2.4-6.8c1.6-1.8,3.7-2.7,6.2-2.7s1.3,0,2,.2c.7.2,1.4.4,2.2.7.1-.3.2-.5.4-.6s.4-.2.8-.2.6,0,.8.3c.2.2.2.6.2,1.1,0,1,0,1.9,0,2.7,0,.8,0,1.2,0,1.1,0,.5,0,.8-.2,1-.2.2-.4.2-.9.2-.7,0-1.1-.5-1.3-1.4,0-.3-.1-.5-.2-.6-.2-.8-.6-1.4-1.4-1.8-.7-.5-1.6-.7-2.5-.7-1.8,0-3.2.6-4.3,1.9s-1.6,3-1.6,5.2.5,3.9,1.6,5.2,2.5,1.9,4.3,1.9,1.2,0,1.8-.2,1.2-.4,1.8-.7c.3-.1.6-.4,1.1-.7.5-.3.8-.5,1-.5.3,0,.6.1.8.3.2.2.3.5.3.8,0,.7-.7,1.5-2.2,2.3-1.5.8-3.1,1.2-5,1.2Z"/>
    <path d="M1222.2,515.5c0,2.8-.8,5-2.3,6.8-1.5,1.8-3.5,2.6-5.9,2.6s-4.3-.9-5.8-2.7c-1.5-1.8-2.3-4-2.3-6.8s.8-5,2.3-6.8,3.5-2.6,5.9-2.6,4.3.9,5.9,2.7c1.5,1.8,2.3,4,2.3,6.8ZM1214.1,522.8c1.7,0,3-.6,4-1.9,1-1.3,1.5-3.1,1.5-5.3s-.5-4.1-1.5-5.3c-1-1.3-2.3-1.9-4-1.9s-3,.6-4,1.9-1.4,3.1-1.4,5.4.5,4.1,1.5,5.3c1,1.3,2.3,1.9,4,1.9Z"/>
  </g>
</svg>