<?xml version="1.0" encoding="UTF-8"?>
<svg id="Layer_1" xmlns="http://www.w3.org/2000/svg" version="1.1" viewBox="0 0 660 570">
  <!-- Generator: Adobe Illustrator 30.2.1, SVG Export Plug-In . SVG Version: 2.1.1 Build 1)  -->
  <polyline points="38 522 20 522 20 211 31 211" fill="none" stroke="#c8d6cc" stroke-width="3"/>
  <polyline points="80 211 103 211 103 201" fill="none" stroke="#c8d6cc" stroke-width="3"/>
  <polyline points="103 153 103 20 609 20 609 522 526 522" fill="none" stroke="#c8d6cc" stroke-width="3"/>
  <line x1="38" y1="522" x2="241" y2="522" fill="none" stroke="#d4a24e" stroke-width="4"/>
  <line x1="241" y1="522" x2="334" y2="522" fill="none" stroke="#c8d6cc" stroke-width="3"/>
  <line x1="334" y1="522" x2="429" y2="522" fill="none" stroke="#d4a24e" stroke-width="4"/>
  <line x1="429" y1="522" x2="437" y2="522" fill="none" stroke="#c8d6cc" stroke-width="3"/>
  <line x1="437" y1="522" x2="526" y2="522" fill="none" stroke="#d4a24e" stroke-width="4"/>
  <line x1="103" y1="211" x2="202" y2="211" fill="none" stroke="#9bb0a2" stroke-width="2"/>
  <line x1="249" y1="211" x2="431" y2="211" fill="none" stroke="#9bb0a2" stroke-width="2"/>
  <line x1="257" y1="279" x2="374" y2="279" fill="none" stroke="#9bb0a2" stroke-width="2"/>
  <line x1="483" y1="279" x2="609" y2="279" fill="none" stroke="#9bb0a2" stroke-width="2"/>
  <line x1="257" y1="20" x2="257" y2="115" fill="none" stroke="#9bb0a2" stroke-width="2"/>
  <line x1="257" y1="165" x2="257" y2="211" fill="none" stroke="#9bb0a2" stroke-width="2"/>
  <polyline points="357 211 357 102 377 102" fill="none" stroke="#9bb0a2" stroke-width="2"/>
  <line x1="419" y1="102" x2="431" y2="102" fill="none" stroke="#9bb0a2" stroke-width="2"/>
  <line x1="431" y1="20" x2="431" y2="51" fill="none" stroke="#9bb0a2" stroke-width="2"/>
  <line x1="431" y1="92" x2="431" y2="211" fill="none" stroke="#9bb0a2" stroke-width="2"/>
  <polyline points="489 156 489 149 609 149" fill="none" stroke="#9bb0a2" stroke-width="2"/>
  <line x1="489" y1="200" x2="489" y2="279" fill="none" stroke="#9bb0a2" stroke-width="2"/>
  <line x1="257" y1="279" x2="257" y2="522" fill="none" stroke="#9bb0a2" stroke-width="2"/>
  <line x1="431" y1="279" x2="431" y2="522" fill="none" stroke="#9bb0a2" stroke-width="2"/>
  <rect x="29" y="211" width="2" height="45" fill="#244536"/>
  <rect x="255" y="115" width="4" height="50" fill="#244536"/>
  <rect x="202" y="209" width="47" height="4" fill="#244536"/>
  <rect x="377" y="100" width="42" height="4" fill="#244536"/>
  <rect x="429" y="51" width="4" height="41" fill="#244536"/>
  <rect x="487" y="156" width="4" height="44" fill="#244536"/>
  <rect x="101" y="153" width="4" height="48" fill="#244536"/>
  <line x1="55" y1="220" x2="55" y2="207" fill="none" stroke="#d4a24e" stroke-width="1.5"/>
  <polygon points="55 205 52 210 58 210 55 205" fill="#d4a24e"/>
  <text transform="translate(38.5 232)" fill="#d4a24e" font-family="Courier, Courier" font-size="7" isolation="isolate" letter-spacing="0em"><tspan x="0" y="0">ENTRADA</tspan></text>
  <text transform="translate(33.8 241)" fill="#d4a24e" font-family="Courier, Courier" font-size="7" isolation="isolate" letter-spacing="0em"><tspan x="0" y="0">PRINCIPAL</tspan></text>
  <rect x="177.5" y="26" width="28" height="26.4" rx="1.2" ry="1.2" fill="none" stroke="#6b8a74" stroke-width="1"/>
  <circle cx="185.5" cy="37" r="2.5" fill="none" stroke="#6b8a74" stroke-width=".6"/>
  <circle cx="197.5" cy="37" r="2.5" fill="none" stroke="#6b8a74" stroke-width=".6"/>
  <circle cx="185.5" cy="45" r="2.5" fill="none" stroke="#6b8a74" stroke-width=".6"/>
  <circle cx="197.5" cy="45" r="2.5" fill="none" stroke="#6b8a74" stroke-width=".6"/>
  <rect x="106.2" y="163.1" width="40" height="35.8" rx="3.2" ry="3.2" transform="translate(307.2 54.8) rotate(90)" fill="none" stroke="#6b8a74" stroke-width="1.3"/>
  <line x1="137" y1="161" x2="137" y2="201" fill="none" stroke="#6b8a74" stroke-width=".8"/>
  <line x1="312" y1="166" x2="312" y2="206" fill="none" stroke="#6b8a74" stroke-width=".8"/>
  <rect x="310" y="165" width="42" height="42" rx="3.5" ry="3.5" fill="none" stroke="#6b8a74" stroke-width="1.4"/>
  <text transform="translate(121.5 405)" fill="#eef2ef" font-family="Helvetica-Bold, Helvetica" font-size="16" font-weight="700" isolation="isolate"><tspan x="0" y="0">Sala</tspan></text>
  <text transform="translate(110.2 423)" fill="#9bb0a2" font-family="Helvetica, Helvetica" font-size="10" isolation="isolate"><tspan x="0" y="0">estar / jantar</tspan></text>
  <text transform="translate(152.8 130)" fill="#eef2ef" font-family="Helvetica-Bold, Helvetica" font-size="14" font-weight="700" isolation="isolate"><tspan x="0" y="0">Cozinha</tspan></text>
  <text transform="translate(320.7 65)" fill="#9bb0a2" font-family="Helvetica, Helvetica" font-size="11" isolation="isolate"><tspan x="0" y="0">Área de</tspan></text>
  <text transform="translate(321.7 79)" fill="#9bb0a2" font-family="Helvetica, Helvetica" font-size="11" isolation="isolate"><tspan x="0" y="0">Serviço</tspan></text>
  <text transform="translate(368 123.8)" fill="#9bb0a2" font-family="Helvetica, Helvetica" font-size="10" isolation="isolate"><tspan x="0" y="0">Banheiro</tspan></text>
  <text transform="translate(372.2 136.8)" fill="#9bb0a2" font-family="Helvetica, Helvetica" font-size="10" isolation="isolate"><tspan x="0" y="0">serviço</tspan></text>
  <text transform="translate(493.3 82)" fill="#eef2ef" font-family="Helvetica-Bold, Helvetica" font-size="13" font-weight="700" isolation="isolate"><tspan x="0" y="0">Quarto 3</tspan></text>
  <text transform="translate(488 98)" fill="#9bb0a2" font-family="Helvetica, Helvetica" font-size="10" isolation="isolate"><tspan x="0" y="0">(dependência)</tspan></text>
  <text transform="translate(527 210)" fill="#9bb0a2" font-family="Helvetica, Helvetica" font-size="11" isolation="isolate"><tspan x="0" y="0">Banheiro</tspan></text>
  <text transform="translate(534.9 224)" fill="#9bb0a2" font-family="Helvetica, Helvetica" font-size="11" isolation="isolate"><tspan x="0" y="0">social</tspan></text>
  <text transform="translate(313.2 405)" fill="#eef2ef" font-family="Helvetica-Bold, Helvetica" font-size="15" font-weight="700" isolation="isolate"><tspan x="0" y="0">Quarto 1</tspan></text>
  <text transform="translate(489.2 405)" fill="#eef2ef" font-family="Helvetica-Bold, Helvetica" font-size="15" font-weight="700" isolation="isolate"><tspan x="0" y="0">Quarto 2</tspan></text>
  <path d="M105,150.8h31.9c2.5,0,4.6-2.1,4.6-4.6V60c0-2.8,2.3-5.1,5.1-5.1h108.4" fill="none" stroke="#6b8a74" stroke-width=".9"/>
  <line x1="25" y1="556" x2="45" y2="556" fill="none" stroke="#d4a24e" stroke-width="3"/>
  <text transform="translate(51 559)" fill="#6b8a74" font-family="Helvetica, Helvetica" font-size="9" isolation="isolate"><tspan x="0" y="0">janelas</tspan></text>
</svg>